<svg version="1" xmlns="http://www.w3.org/2000/svg" width="48" height="48"><path fill="#FFF" d="M17.178 38.469l-.007.008.012.013a.011.011 0 0 1-.004.005c-.627 2.282-3.491 2.451-3.491 2.451l.509-.475-.359.013s.177-2.593 2.444-2.925l.008-.001.004.005.008-.008-.227-.232h-.012c-3.149.242-3.135 3.899-3.135 3.899l.506.019-.668.621s4.013.049 4.657-3.123l.006-.008-.251-.262zm-4.744-4.655l.013.025h-.011c-.497 2.312-3.348 2.636-3.348 2.636l.48-.503-.357.032s.034-2.599 2.276-3.05l.008-.004.011.01v-.01l.007.003-.245-.228-.011.003c-3.132.413-2.913 4.063-2.913 4.063l.505-.01-.631.656s4.009-.168 4.477-3.369l.007-.008-.268-.246z"/><path fill="#FFF" d="M14.63 36.575l-.015.015.008.008-.011.01c-1.436 4.177-6.557 5.119-6.557 5.119l.973-.951-.643.102s.686-4.623 4.759-5.72c.008-.001.01-.003.015-.007l.004.004.014-.015-.363-.358c-.007 0-.015.004-.021.006-5.638 1.14-6.127 7.601-6.127 7.601l.898-.081-1.274 1.249s7.127-.819 8.724-6.573l.013-.014-.397-.395zm26.56-21.623c-.847-.75-5.323.516-5.772-.195-.246-.389 1.208-2.605.652-3.22-.419-.467-1.902-.446-2.835-.526-6.767 7.794-13.794 15.762-20.768 23.284a179.196 179.196 0 0 1 3.195 3.152c8.303-7.374 17.166-14.773 25.771-21.832-.044-.304-.117-.551-.243-.663zm-9.162-7.924c-.414-.612-.844-1.47-1.184-2.248-4.7 6.414-9.424 12.811-14.341 19.062.19 0 .382-.005.573-.005a322.738 322.738 0 0 1-6.56 8.197l.965 1.392c6.747-7.28 13.549-14.98 20.11-22.536a.333.333 0 0 1-.088-.056c-.338-.338 1.162-2.863.525-3.806zm14.327 11.347c-1.271-.048-3.322.071-3.681-.365-.167-.202-.155-.99-.192-1.724-8.344 6.863-16.896 14.039-24.939 21.181l1.195.758a324.19 324.19 0 0 1 8.418-6.525c0 .209-.004.416-.006.625 6.298-4.786 12.744-9.378 19.205-13.95z"/><path fill="#FFF" d="M44.324 3.822c-.796.229-3.095.631-3.216-.637-.041-.439.147-.948.571-1.421.08-.217.532-.492.693-.706a103.906 103.906 0 0 0-10.331 2.871c.411.799.94 1.689 1.425 2.308.727.929-.643 3.645-.265 3.97.387.335 3.097-.163 3.746.466.616.596-.725 2.989-.441 3.372.514.704 5.045-.928 5.974-.215.522.404.396 2.769.734 3.124.424.447 2.749.12 4.038.106.412-3.535.68-7.06.708-10.616-.548.25-3.251 1.418-3.18.476.018-.217.31-1.086.427-1.873.055-.773-.083-1.455-.883-1.225z"/><path fill="#FFF" d="M45.473 3.173c1.332-.285.436 2.094.371 2.562-.108.798 2.231-.036 2.705-.214.072-1.748.718-4.677.326-5.234-.438-.625-2.798.135-4.788.366-.372.394-1.38 1.174-1.364 1.773.026 1.107 2.047.897 2.75.747zM17.429 40.486c.34 2.482.61 4.973.848 7.468 2.594-2.657 5.178-5.321 7.655-8.085.131-2.045.2-4.085.2-6.135a323.407 323.407 0 0 0-8.703 6.752zM9.213 24.363C6.404 26.805 3.7 29.348 1 31.9c2.53.23 5.057.494 7.577.826a321.948 321.948 0 0 0 6.857-8.564c-2.078.001-4.147.072-6.221.201z"/></svg>