<svg id="fa73b971-ab48-417a-bce7-f573bd72fa43" data-name="Layer 1" xmlns="http://www.w3.org/2000/svg" viewBox="0 0 42.54 42.42"><defs><style>.aa472e7c-629b-42eb-94cf-381690d750f5{fill:#9fa4aa}</style></defs><path class="aa472e7c-629b-42eb-94cf-381690d750f5" d="M23.2 46.1c-.19-2.86 0-5.73-.07-8.59a.8.8 0 0 1 .31-.62l7.62-7.62.11 8.86zM10.84 17.8c2.32.18 4.65 0 7 .06.57 0 1.14-.06 1.73-.1 0 .48-.29.6-.46.77-2.24 2.25-4.5 4.49-6.73 6.75a1.63 1.63 0 0 1-1.34.57c-2.71-.07-5.43.11-8.14-.07zM5.07 43.4c0-1.3.79-2.1 1.64-2.93 2.92-2.87 5.79-5.77 8.7-8.68a3.14 3.14 0 0 0 .39.47c1.09.85 1.1.85.09 1.85-2.59 2.59-5.2 5.16-7.76 7.78a4 4 0 0 1-2.93 1.64zM16.1 29.77a35.7 35.7 0 0 1-3-2.95v-.25c1.9-1.81 3.64-3.57 5.43-5.41L34.9 4.83h.23a24 24 0 0 0 2.22 3.71v.25q-4.12 4.12-8.22 8.21L16.35 29.75zm24.35-18.14a23 23 0 0 0 3.7 2.21v.23q-4.66 4.7-9.34 9.38l-12.4 12.36h-.26a39.1 39.1 0 0 1-2.95-2.95v-.26l9-9.06 12-11.9zM10.21 42.64l8-8h.24l1 1v.24l-6.83 6.81h-.27a6.79 6.79 0 0 1-1.85.17zM5.85 36l6.81-6.82h.24l1 1v.25l-8 8-.33-.3a6.82 6.82 0 0 1 .16-1.86zm4.36 6.64l.31.33h-.58c-.01-.16.14-.24.27-.33z" transform="translate(-2.87 -3.68)"/><path class="aa472e7c-629b-42eb-94cf-381690d750f5" d="M5.64 38.09l.33.3-.33.28c-.17-.19-.03-.38 0-.58zM40.82 12h-.26c.08-.07.16-.1.26 0zM13.17 26.57v.25c-.17-.1-.09-.18 0-.25zm2.93 3.2h.25c-.08.07-.16.12-.25 0zM19.6 33v.25c-.14-.1-.1-.18 0-.25zm2.92 3.2h.26c-.08.07-.16.12-.26 0zm-9.25-6.69H13c.11-.11.19-.1.27 0zM37.31 8.78v-.25c.13.1.1.18 0 .25zM14.32 30.8v-.25c.08.08.11.16 0 .25zm30.2-16.36v-.23c.13.08.08.16 0 .23zM18.8 35h-.25c.09-.08.17-.06.25 0zM35.13 4.82h-.23c.1-.08.15-.13.23 0zM19.84 36.31v-.23c.09.07.16.15 0 .23zM5.85 36v.27zm6.52 6.8h.27zM45.41 4.07a.36.36 0 0 0-.41-.39l-4.6.17c-.22 0-.27.15-.12.3l4.63 4.63c.15.15.29.1.3-.12z" transform="translate(-2.87 -3.68)"/></svg>