<svg id="fa73b971-ab48-417a-bce7-f573bd72fa43" data-name="Layer 1" xmlns="http://www.w3.org/2000/svg" viewBox="0 0 42.54 42.42"><defs><style>.aa472e7c-629b-42eb-94cf-381690d750f5{fill:#9fa4aa;}</style></defs><title>spinkx-ico-48</title><path class="aa472e7c-629b-42eb-94cf-381690d750f5" d="M23.2,46.1c-.19-2.86,0-5.73-.07-8.59a.8.8,0,0,1,.31-.62l7.62-7.62.11,8.86Z" transform="translate(-2.87 -3.68)"/><path class="aa472e7c-629b-42eb-94cf-381690d750f5" d="M10.84,17.8c2.32.18,4.65,0,7,.06.57,0,1.14-.06,1.73-.1,0,.48-.29.6-.46.77-2.24,2.25-4.5,4.49-6.73,6.75a1.63,1.63,0,0,1-1.34.57c-2.71-.07-5.43.11-8.14-.07Z" transform="translate(-2.87 -3.68)"/><path class="aa472e7c-629b-42eb-94cf-381690d750f5" d="M5.07,43.4c0-1.3.79-2.1,1.64-2.93,2.92-2.87,5.79-5.77,8.7-8.68a3.14,3.14,0,0,0,.39.47c1.09.85,1.1.85.09,1.85-2.59,2.59-5.2,5.16-7.76,7.78A4,4,0,0,1,5.2,43.53Z" transform="translate(-2.87 -3.68)"/><path class="aa472e7c-629b-42eb-94cf-381690d750f5" d="M16.1,29.77a35.7,35.7,0,0,1-3-2.95l0-.25C15,24.76,16.74,23,18.53,21.16L34.9,4.83h.23a24,24,0,0,0,2.22,3.71l0,.25Q33.23,12.91,29.13,17L16.35,29.75Z" transform="translate(-2.87 -3.68)"/><path class="aa472e7c-629b-42eb-94cf-381690d750f5" d="M40.45,11.63a23,23,0,0,0,3.7,2.21v.23q-4.66,4.7-9.34,9.38L22.41,35.81l-.26,0a39.1,39.1,0,0,1-2.95-2.95l0-.26,9-9.06,12-11.9Z" transform="translate(-2.87 -3.68)"/><path class="aa472e7c-629b-42eb-94cf-381690d750f5" d="M10.21,42.64l8-8h.24l1,1v.24l-6.83,6.81-.27,0a6.79,6.79,0,0,1-1.85.17Z" transform="translate(-2.87 -3.68)"/><path class="aa472e7c-629b-42eb-94cf-381690d750f5" d="M5.85,36l6.81-6.82h.24l1,1v.25l-8,8-.33-.3a6.82,6.82,0,0,1,.16-1.86Z" transform="translate(-2.87 -3.68)"/><path class="aa472e7c-629b-42eb-94cf-381690d750f5" d="M10.21,42.64l.31.33-.58,0C9.93,42.81,10.08,42.73,10.21,42.64Z" transform="translate(-2.87 -3.68)"/><path class="aa472e7c-629b-42eb-94cf-381690d750f5" d="M5.64,38.09l.33.3-.33.28C5.47,38.48,5.61,38.29,5.64,38.09Z" transform="translate(-2.87 -3.68)"/><path class="aa472e7c-629b-42eb-94cf-381690d750f5" d="M40.82,12l-.26,0C40.64,11.93,40.72,11.9,40.82,12Z" transform="translate(-2.87 -3.68)"/><path class="aa472e7c-629b-42eb-94cf-381690d750f5" d="M13.17,26.57l0,.25C13,26.72,13.08,26.64,13.17,26.57Z" transform="translate(-2.87 -3.68)"/><path class="aa472e7c-629b-42eb-94cf-381690d750f5" d="M16.1,29.77l.25,0C16.27,29.84,16.19,29.89,16.1,29.77Z" transform="translate(-2.87 -3.68)"/><path class="aa472e7c-629b-42eb-94cf-381690d750f5" d="M19.6,33l0,.25C19.46,33.15,19.5,33.07,19.6,33Z" transform="translate(-2.87 -3.68)"/><path class="aa472e7c-629b-42eb-94cf-381690d750f5" d="M22.52,36.2l.26,0C22.7,36.27,22.62,36.32,22.52,36.2Z" transform="translate(-2.87 -3.68)"/><path class="aa472e7c-629b-42eb-94cf-381690d750f5" d="M13.27,29.51H13C13.11,29.4,13.19,29.41,13.27,29.51Z" transform="translate(-2.87 -3.68)"/><path class="aa472e7c-629b-42eb-94cf-381690d750f5" d="M37.31,8.78l0-.25C37.44,8.63,37.41,8.71,37.31,8.78Z" transform="translate(-2.87 -3.68)"/><path class="aa472e7c-629b-42eb-94cf-381690d750f5" d="M14.32,30.8l0-.25C14.4,30.63,14.43,30.71,14.32,30.8Z" transform="translate(-2.87 -3.68)"/><path class="aa472e7c-629b-42eb-94cf-381690d750f5" d="M44.52,14.44v-.23C44.65,14.29,44.6,14.37,44.52,14.44Z" transform="translate(-2.87 -3.68)"/><path class="aa472e7c-629b-42eb-94cf-381690d750f5" d="M18.8,35h-.25C18.64,34.92,18.72,34.94,18.8,35Z" transform="translate(-2.87 -3.68)"/><path class="aa472e7c-629b-42eb-94cf-381690d750f5" d="M35.13,4.82H34.9C35,4.74,35.05,4.69,35.13,4.82Z" transform="translate(-2.87 -3.68)"/><path class="aa472e7c-629b-42eb-94cf-381690d750f5" d="M19.84,36.31v-.23C19.93,36.15,20,36.23,19.84,36.31Z" transform="translate(-2.87 -3.68)"/><path class="aa472e7c-629b-42eb-94cf-381690d750f5" d="M5.85,36l0,.27Z" transform="translate(-2.87 -3.68)"/><path class="aa472e7c-629b-42eb-94cf-381690d750f5" d="M12.37,42.8l.27,0Z" transform="translate(-2.87 -3.68)"/><path class="aa472e7c-629b-42eb-94cf-381690d750f5" d="M45.41,4.07A.36.36,0,0,0,45,3.68l-4.6.17c-.22,0-.27.15-.12.3l4.63,4.63c.15.15.29.1.3-.12Z" transform="translate(-2.87 -3.68)"/></svg>