<?xml version="1.0" encoding="utf-8"?>
<!-- Generator: Adobe Illustrator 16.0.0, SVG Export Plug-In . SVG Version: 6.00 Build 0)  -->
<!DOCTYPE svg PUBLIC "-//W3C//DTD SVG 1.0//EN" "http://www.w3.org/TR/2001/REC-SVG-20010904/DTD/svg10.dtd">
<svg version="1.0" id="Layer_1" xmlns="http://www.w3.org/2000/svg" xmlns:xlink="http://www.w3.org/1999/xlink" x="0px" y="0px"
	 width="48px" height="48px" viewBox="0 0 48 48" enable-background="new 0 0 48 48" xml:space="preserve">
<g>
	<g>
		<path fill="#FFFFFF" d="M17.178,38.469l-0.007,0.008l0.012,0.013c-0.001,0.003-0.004,0.005-0.004,0.005
			c-0.627,2.282-3.491,2.451-3.491,2.451l0.509-0.475l-0.359,0.013c0,0,0.177-2.593,2.444-2.925c0.001,0,0.004-0.001,0.008-0.001
			l0.004,0.005l0.008-0.008l-0.227-0.232c-0.004,0-0.006,0-0.012,0c-3.149,0.242-3.135,3.899-3.135,3.899l0.506,0.019l-0.668,0.621
			c0,0,4.013,0.049,4.657-3.123c0,0,0.001-0.003,0.006-0.008L17.178,38.469z"/>
	</g>
	<g>
		<path fill="#FFFFFF" d="M12.434,33.814l0.013,0.025h-0.011c-0.497,2.312-3.348,2.636-3.348,2.636l0.48-0.503l-0.357,0.032
			c0,0,0.034-2.599,2.276-3.05c0.002-0.002,0.005-0.002,0.008-0.004l0.011,0.01v-0.01l0.007,0.003l-0.245-0.228
			c-0.004,0.002-0.007,0.002-0.011,0.003c-3.132,0.413-2.913,4.063-2.913,4.063l0.505-0.01l-0.631,0.656
			c0,0,4.009-0.168,4.477-3.369c0,0,0.002-0.003,0.007-0.008L12.434,33.814z"/>
	</g>
	<g>
		<path fill="#FFFFFF" d="M14.63,36.575l-0.015,0.015l0.008,0.008c-0.008,0.007-0.011,0.01-0.011,0.01
			c-1.436,4.177-6.557,5.119-6.557,5.119l0.973-0.951l-0.643,0.102c0,0,0.686-4.623,4.759-5.72c0.008-0.001,0.01-0.003,0.015-0.007
			l0.004,0.004l0.014-0.015l-0.363-0.358c-0.007,0-0.015,0.004-0.021,0.006c-5.638,1.14-6.127,7.601-6.127,7.601l0.898-0.081
			l-1.274,1.249c0,0,7.127-0.819,8.724-6.573c0,0,0.003-0.004,0.013-0.014L14.63,36.575z"/>
	</g>
	<path fill="#FFFFFF" d="M41.19,14.952c-0.847-0.75-5.323,0.516-5.772-0.195c-0.246-0.389,1.208-2.605,0.652-3.22
		c-0.419-0.467-1.902-0.446-2.835-0.526c-6.767,7.794-13.794,15.762-20.768,23.284c1.077,1.038,2.145,2.088,3.195,3.152
		c8.303-7.374,17.166-14.773,25.771-21.832C41.389,15.311,41.316,15.064,41.19,14.952z"/>
	<path fill="#FFFFFF" d="M32.028,7.028c-0.414-0.612-0.844-1.47-1.184-2.248c-4.7,6.414-9.424,12.811-14.341,19.062
		c0.19,0,0.382-0.005,0.573-0.005c-2.145,2.767-4.326,5.501-6.56,8.197c0.373,0.538,0.962,1.387,0.965,1.392
		c6.747-7.28,13.549-14.98,20.11-22.536c-0.036-0.017-0.066-0.035-0.088-0.056C31.165,10.496,32.665,7.971,32.028,7.028z"/>
	<g>
		<path fill="#FFFFFF" d="M46.355,18.375c-1.271-0.048-3.322,0.071-3.681-0.365c-0.167-0.202-0.155-0.99-0.192-1.724
			c-8.344,6.863-16.896,14.039-24.939,21.181l1.195,0.758c2.769-2.222,5.576-4.394,8.418-6.525c0,0.209-0.004,0.416-0.006,0.625
			C33.448,27.539,39.894,22.947,46.355,18.375z"/>
	</g>
	<path fill="#FFFFFF" d="M44.324,3.822c-0.796,0.229-3.095,0.631-3.216-0.637c-0.041-0.439,0.147-0.948,0.571-1.421
		c0.08-0.217,0.532-0.492,0.693-0.706c-3.496,0.781-6.936,1.735-10.331,2.871c0.411,0.799,0.94,1.689,1.425,2.308
		c0.727,0.929-0.643,3.645-0.265,3.97c0.387,0.335,3.097-0.163,3.746,0.466c0.616,0.596-0.725,2.989-0.441,3.372
		c0.514,0.704,5.045-0.928,5.974-0.215c0.522,0.404,0.396,2.769,0.734,3.124c0.424,0.447,2.749,0.12,4.038,0.106
		C47.664,13.525,47.932,10,47.96,6.444c-0.548,0.25-3.251,1.418-3.18,0.476c0.018-0.217,0.31-1.086,0.427-1.873
		C45.262,4.274,45.124,3.592,44.324,3.822z"/>
	<path fill="#FFFFFF" d="M45.473,3.173c1.332-0.285,0.436,2.094,0.371,2.562c-0.108,0.798,2.231-0.036,2.705-0.214
		c0.072-1.748,0.718-4.677,0.326-5.234c-0.438-0.625-2.798,0.135-4.788,0.366c-0.372,0.394-1.38,1.174-1.364,1.773
		C42.749,3.533,44.77,3.323,45.473,3.173z"/>
	<path fill="#FFFFFF" d="M17.429,40.486c0.34,2.482,0.61,4.973,0.848,7.468c2.594-2.657,5.178-5.321,7.655-8.085
		c0.131-2.045,0.2-4.085,0.2-6.135C23.193,35.939,20.289,38.184,17.429,40.486z"/>
	<path fill="#FFFFFF" d="M9.213,24.363C6.404,26.805,3.7,29.348,1,31.9c2.53,0.23,5.057,0.494,7.577,0.826
		c2.338-2.814,4.617-5.673,6.857-8.564C13.356,24.163,11.287,24.234,9.213,24.363z"/>
</g>
</svg>
